<svg width="138" height="81" viewBox="0 0 138 81" fill="none" xmlns="http://www.w3.org/2000/svg" aria-hidden="true">
<path d="M123.3 0H29.01C21.26 0 13.94 3.54 9.13 9.62L4.06 16.03C3.24 17.07 3.98 18.6 5.3 18.6H42.08L0 77.84C0 77.84 15.89 71.85 28.99 59.99C42.09 48.13 49.52 37.44 58.17 29.18C66.82 20.92 76.4 18.59 86.95 18.59H99.6C107.36 18.59 114.68 15.04 119.49 8.96L124.54 2.57C125.36 1.53 124.62 0 123.3 0Z" fill="#5F6DF4"/>
<path d="M1.11011 80.23C1.11011 80.23 38.2801 73.56 56.2101 61.34C74.1101 49.15 83.2801 41.25 89.4601 37.77C102.44 30.48 113.75 26.97 113.75 26.97C113.75 26.97 94.1501 26.51 86.6901 27.74C80.7101 28.73 72.3801 28.74 55.4701 44.28C19.7301 77.13 7.88011 77.71 1.11011 80.23Z" fill="url(#paint0_linear_logo_icon)"/>
<path d="M127.09 16.44C125.53 23.44 124.38 25.75 116.64 27.33C123.48 29.1 125.51 29.95 127.09 37.35C128.68 29.95 130.7 29.11 137.54 27.33C129.8 25.75 128.64 23.44 127.09 16.44Z" fill="#8B5DCE"/>
<defs>
<linearGradient id="paint0_linear_logo_icon" x1="1.11011" y1="53.56" x2="113.75" y2="53.56" gradientUnits="userSpaceOnUse">
<stop stop-color="#5F6DF4"/>
<stop offset="1" stop-color="#8B5DCE"/>
</linearGradient>
</defs>
</svg>
