<svg width="632" height="81" viewBox="0 0 632 81" fill="none" xmlns="http://www.w3.org/2000/svg">
<path d="M123.3 0H29.01C21.26 0 13.94 3.54 9.13 9.62L4.06 16.03C3.24 17.07 3.98 18.6 5.3 18.6H42.08L0 77.84C0 77.84 15.89 71.85 28.99 59.99C42.09 48.13 49.52 37.44 58.17 29.18C66.82 20.92 76.4 18.59 86.95 18.59H99.6C107.36 18.59 114.68 15.04 119.49 8.96L124.54 2.57C125.36 1.53 124.62 0 123.3 0Z" fill="#5F6DF4"/>
<path d="M1.11011 80.23C1.11011 80.23 38.2801 73.56 56.2101 61.34C74.1101 49.15 83.2801 41.25 89.4601 37.77C102.44 30.48 113.75 26.97 113.75 26.97C113.75 26.97 94.1501 26.51 86.6901 27.74C80.7101 28.73 72.3801 28.74 55.4701 44.28C19.7301 77.13 7.88011 77.71 1.11011 80.23Z" fill="url(#paint0_linear_459_11909_dark)"/>
<path d="M127.09 16.44C125.53 23.44 124.38 25.75 116.64 27.33C123.48 29.1 125.51 29.95 127.09 37.35C128.68 29.95 130.7 29.11 137.54 27.33C129.8 25.75 128.64 23.44 127.09 16.44Z" fill="#8B5DCE"/>
<path d="M175.83 27.9V57.55C175.83 60.62 176.68 62.99 178.38 64.65C180.08 66.31 182.14 67.14 184.55 67.14H190.65V78.6H184.55C181.64 78.6 178.92 78.1 176.39 77.1C173.86 76.1 171.63 74.69 169.72 72.86C167.81 71.03 166.31 68.83 165.24 66.26C164.16 63.69 163.62 60.82 163.62 57.66V0H175.83V16.44H190.65V27.9H175.83Z" fill="white"/>
<path d="M229.56 69.14C233.71 69.14 237.49 68.21 240.9 66.34C244.31 64.47 247.01 61.92 249 58.68L259.09 64.79C256.02 70.02 251.82 73.9 246.51 76.44C241.19 78.97 235.55 80.24 229.57 80.24C224.67 80.24 220.14 79.45 215.99 77.87C211.84 76.29 208.24 74.07 205.21 71.2C202.18 68.34 199.79 64.89 198.05 60.86C196.31 56.83 195.43 52.37 195.43 47.47C195.43 42.57 196.28 38.38 197.98 34.39C199.68 30.4 202.01 26.96 204.96 24.05C207.91 21.14 211.42 18.86 215.49 17.2C219.56 15.54 223.96 14.71 228.69 14.71C233.42 14.71 237.7 15.52 241.77 17.14C245.84 18.76 249.37 21 252.36 23.87C255.35 26.73 257.69 30.14 259.4 34.08C261.1 38.03 261.95 42.36 261.95 47.1C261.95 47.93 261.91 48.86 261.83 49.9C261.75 50.94 261.62 51.92 261.46 52.83H208.51C209.59 57.81 212.06 61.78 215.92 64.73C219.78 67.68 224.33 69.15 229.56 69.15V69.14ZM248.87 41.36C247.71 36.79 245.3 33.08 241.64 30.21C237.98 27.34 233.67 25.91 228.68 25.91C223.69 25.91 219.42 27.34 215.85 30.21C212.28 33.07 209.91 36.79 208.75 41.36H248.86H248.87Z" fill="white"/>
<path d="M335.02 56.82V78.61H322.81V71.76C319.9 74.5 316.58 76.6 312.84 78.05C309.1 79.5 304.99 80.23 300.51 80.23C296.03 80.23 291.81 79.4 287.87 77.74C283.93 76.08 280.46 73.77 277.47 70.83C274.48 67.88 272.13 64.41 270.43 60.43C268.73 56.45 267.88 52.13 267.88 47.47C267.88 42.81 268.73 38.61 270.43 34.58C272.13 30.55 274.48 27.08 277.47 24.18C280.46 21.28 283.93 18.97 287.87 17.26C291.81 15.56 296.03 14.71 300.51 14.71C304.99 14.71 309.24 14.86 314.38 16.72C319.52 18.58 322.41 21.19 325.32 23.85C332.84 31.04 335.02 40.53 335.02 56.83V56.82ZM301.63 69.14C304.7 69.14 307.55 68.56 310.16 67.4C312.78 66.24 315.02 64.68 316.89 62.73C318.76 60.78 320.21 58.49 321.25 55.88C322.29 53.26 322.81 50.46 322.81 47.47C322.81 44.48 322.29 41.68 321.25 39.06C320.21 36.44 318.76 34.16 316.89 32.21C315.02 30.26 312.78 28.7 310.16 27.54C307.54 26.38 304.7 25.8 301.63 25.8C298.56 25.8 295.71 26.38 293.1 27.54C290.49 28.7 288.24 30.26 286.37 32.21C284.5 34.16 283.05 36.45 282.01 39.06C280.97 41.68 280.45 44.48 280.45 47.47C280.45 50.46 280.97 53.26 282.01 55.88C283.05 58.5 284.5 60.78 286.37 62.73C288.24 64.68 290.48 66.24 293.1 67.4C295.72 68.56 298.56 69.14 301.63 69.14Z" fill="white"/>
<path d="M422.11 78.61V39.62C422.11 37.71 421.74 35.92 420.99 34.26C420.24 32.6 419.25 31.15 418 29.9C416.76 28.65 415.28 27.68 413.58 26.97C411.88 26.27 410.07 25.91 408.16 25.91C406.25 25.91 404.49 26.26 402.87 26.97C401.25 27.68 399.82 28.61 398.57 29.77C397.33 30.93 396.33 32.32 395.58 33.94C394.83 35.56 394.42 37.28 394.33 39.11V78.6H382.12V39.61C382.12 37.7 381.75 35.91 381 34.25C380.25 32.59 379.25 31.14 378.01 29.89C376.77 28.64 375.29 27.67 373.59 26.96C371.89 26.26 370.08 25.9 368.17 25.9C366.26 25.9 364.47 26.25 362.81 26.96C361.15 27.67 359.7 28.6 358.45 29.76C357.2 30.92 356.21 32.31 355.46 33.93C354.71 35.55 354.3 37.27 354.21 39.1V78.59H342V16.44H354.21V22.92C356.37 20.43 358.92 18.46 361.87 17C364.82 15.55 367.99 14.82 371.4 14.82C375.39 14.82 379.06 15.67 382.42 17.37C385.78 19.07 388.5 21.5 390.58 24.66C392.91 21.75 395.75 19.39 399.12 17.56C402.48 15.73 406.16 14.82 410.14 14.82C413.38 14.82 416.47 15.34 419.42 16.38C422.37 17.42 424.94 18.93 427.14 20.93C429.34 22.92 431.08 25.35 432.37 28.22C433.66 31.09 434.3 34.3 434.3 37.87V78.61H422.09H422.11Z" fill="white"/>
<path d="M465.03 78.61L436.88 16.45H450.58L469.52 59.18L488.33 16.45H501.29L473.14 78.61H465.04H465.03Z" fill="white"/>
<path d="M534.46 69.14C538.61 69.14 542.39 68.21 545.8 66.34C549.21 64.47 551.91 61.92 553.9 58.68L563.99 64.79C560.92 70.02 556.72 73.9 551.41 76.44C546.09 78.97 540.45 80.24 534.47 80.24C529.57 80.24 525.04 79.45 520.89 77.87C516.74 76.29 513.14 74.07 510.11 71.2C507.08 68.34 504.69 64.89 502.95 60.86C501.21 56.83 500.33 52.37 500.33 47.47C500.33 42.57 501.18 38.38 502.88 34.39C504.58 30.4 506.91 26.96 509.86 24.05C512.81 21.14 516.32 18.86 520.39 17.2C524.46 15.54 528.86 14.71 533.59 14.71C538.32 14.71 542.6 15.52 546.67 17.14C550.74 18.76 554.27 21 557.26 23.87C560.25 26.73 562.59 30.14 564.3 34.08C566 38.03 566.85 42.36 566.85 47.1C566.85 47.93 566.81 48.86 566.73 49.9C566.65 50.94 566.52 51.92 566.36 52.83H513.41C514.49 57.81 516.96 61.78 520.82 64.73C524.68 67.68 529.23 69.15 534.46 69.15V69.14ZM553.77 41.36C552.61 36.79 550.2 33.08 546.54 30.21C542.88 27.34 538.57 25.91 533.58 25.91C528.59 25.91 524.32 27.34 520.75 30.21C517.18 33.07 514.81 36.79 513.65 41.36H553.76H553.77Z" fill="white"/>
<path d="M631.39 44.1C631.39 32.03 627.85 26.55 623.26 22.11C615.6 14.7 605.01 14.66 602.99 14.45C599.75 14.78 574.59 14.7 574.59 45.03V78.61H586.8V40.86C586.88 38.87 587.36 37.02 588.23 35.32C589.1 33.62 590.26 32.1 591.72 30.77C593.17 29.44 594.87 28.4 596.83 27.66C598.78 26.91 600.84 26.54 603 26.54C605.16 26.54 607.22 26.91 609.17 27.66C611.12 28.41 612.83 29.45 614.28 30.77C615.73 32.1 616.9 33.62 617.77 35.32C618.64 37.02 619.12 38.87 619.2 40.86V44.1H631.41H631.39Z" fill="white"/>
<defs>
<linearGradient id="paint0_linear_459_11909_dark" x1="1.11011" y1="53.56" x2="113.75" y2="53.56" gradientUnits="userSpaceOnUse">
<stop stop-color="#5F6DF4"/>
<stop offset="1" stop-color="#8B5DCE"/>
</linearGradient>
</defs>
</svg>
